<svg xmlns="http://www.w3.org/2000/svg" viewBox="0 0 512 512">
  <defs>
    <linearGradient id="g1" x1="0%" y1="0%" x2="100%" y2="100%">
      <stop offset="0%" stop-color="#f472b6"/>
      <stop offset="100%" stop-color="#fdba74"/>
    </linearGradient>
    <linearGradient id="g2" x1="0%" y1="100%" x2="100%" y2="0%">
      <stop offset="0%" stop-color="#f97316"/>
      <stop offset="100%" stop-color="#fb923c"/>
    </linearGradient>
    <linearGradient id="g3" x1="100%" y1="0%" x2="0%" y2="100%">
      <stop offset="0%" stop-color="#ec4899"/>
      <stop offset="100%" stop-color="#f472b6"/>
    </linearGradient>
  </defs>
  <rect width="512" height="512" fill="#0a0a0a" rx="100"/>
  <g transform="translate(56, 56) scale(4)">
    <path d="M50 5 L90 27 L90 50 L75 58 L75 35 L50 20 L50 5Z" fill="url(#g1)"/>
    <path d="M90 50 L90 73 L50 95 L50 72 L75 58 L90 50Z" fill="url(#g2)"/>
    <path d="M50 5 L50 20 L25 35 L10 27 L10 50 L25 58 L25 35 L50 20 L50 5Z" fill="url(#g3)"/>
    <path d="M10 27 L10 73 L25 82 L25 58 L10 50 L10 27Z" fill="url(#g2)"/>
    <path d="M10 73 L50 95 L50 72 L25 58 L25 82 L10 73Z" fill="url(#g1)"/>
    <path d="M35 42 L50 33 L65 42 L50 51 L35 42Z" fill="url(#g1)"/>
    <path d="M35 42 L35 58 L50 67 L50 51 L35 42Z" fill="url(#g3)"/>
    <path d="M50 51 L50 67 L65 58 L65 42 L50 51Z" fill="url(#g2)"/>
  </g>
</svg>
